<?xml version="1.0" encoding="UTF-8"?>
<!DOCTYPE svg PUBLIC "-//W3C//DTD SVG 1.1//EN" "http://www.w3.org/Graphics/SVG/1.1/DTD/svg11.dtd">
<svg version="1.1" xmlns="http://www.w3.org/2000/svg" xmlns:xlink="http://www.w3.org/1999/xlink" x="0" y="0" width="255.555" height="261.395" viewBox="0, 0, 255.555, 261.395">
  <g id="Layer_1" transform="translate(-0.207, 27.527)">
    <g>
      <g>
        <path d="M61.707,104.953 C61.707,65.752 91.604,33.973 128.484,33.973" fill-opacity="0" stroke="#000000" stroke-width="30"/>
        <path d="M128.484,33.973 C165.364,33.973 195.262,65.752 195.262,104.953" fill-opacity="0" stroke="#000000" stroke-width="30"/>
      </g>
      <g>
        <path d="M223.221,113.953 C228.063,113.953 231.988,119.326 231.988,125.953 L231.988,221.367 C231.988,227.995 228.063,233.367 223.221,233.367 L33.748,233.367 C28.906,233.367 24.98,227.995 24.98,221.367 L24.98,125.953 C24.98,119.326 28.906,113.953 33.748,113.953 z M88.952,138.484 C69.516,138.484 53.776,154.224 53.776,173.66 C53.776,193.097 69.516,208.836 88.952,208.836 C102.02,208.836 113.404,201.552 119.407,190.9 L133.426,190.754 L144.443,179.663 L152.789,188.155 L161.245,179.663 L169.663,188.155 L178.155,179.517 L186.977,188.375 L187.196,188.302 L201.911,173.367 C203.558,171.647 203.705,170.073 201.838,168.206 L189.978,156.2 L119.187,156.054 C113.038,145.622 101.873,138.484 88.952,138.484 z M73.579,163.631 C78.813,163.631 83.023,167.95 83.023,173.074 C83.023,178.309 78.813,182.591 73.579,182.591 C68.308,182.591 64.135,178.309 64.135,173.074 C64.135,167.95 68.345,163.631 73.579,163.631 z" fill="#000000"/>
        <path d="M223.221,113.953 C228.063,113.953 231.988,119.326 231.988,125.953 L231.988,221.367 C231.988,227.995 228.063,233.367 223.221,233.367 L33.748,233.367 C28.906,233.367 24.98,227.995 24.98,221.367 L24.98,125.953 C24.98,119.326 28.906,113.953 33.748,113.953 z M88.952,138.484 C69.516,138.484 53.776,154.224 53.776,173.66 C53.776,193.097 69.516,208.836 88.952,208.836 C102.02,208.836 113.404,201.552 119.407,190.9 L133.426,190.754 L144.443,179.663 L152.789,188.155 L161.245,179.663 L169.663,188.155 L178.155,179.517 L186.977,188.375 L187.196,188.302 L201.911,173.367 C203.558,171.647 203.705,170.073 201.838,168.206 L189.978,156.2 L119.187,156.054 C113.038,145.622 101.873,138.484 88.952,138.484 z M73.579,163.631 C78.813,163.631 83.023,167.95 83.023,173.074 C83.023,178.309 78.813,182.591 73.579,182.591 C68.308,182.591 64.135,178.309 64.135,173.074 C64.135,167.95 68.345,163.631 73.579,163.631 z" fill-opacity="0" stroke="#000000" stroke-width="1"/>
      </g>
    </g>
  </g>
</svg>
